<?xml version="1.0" encoding="UTF-8" standalone="no"?>
<svg
   xmlns:dc="http://purl.org/dc/elements/1.1/"
   xmlns:cc="http://creativecommons.org/ns#"
   xmlns:rdf="http://www.w3.org/1999/02/22-rdf-syntax-ns#"
   xmlns:svg="http://www.w3.org/2000/svg"
   xmlns="http://www.w3.org/2000/svg"
   viewBox="0 0 1056 1056"
   height="1056"
   width="1056"
   xml:space="preserve"
   id="svg2"
   version="1.1"><metadata
     id="metadata8"><rdf:RDF><cc:Work
         rdf:about=""><dc:format>image/svg+xml</dc:format><dc:type
           rdf:resource="http://purl.org/dc/dcmitype/StillImage" /></cc:Work></rdf:RDF></metadata><defs
     id="defs6"><clipPath
       id="clipPath18"
       clipPathUnits="userSpaceOnUse"><path
         id="path16"
         d="M 0,792 H 792 V 0 H 0 Z" /></clipPath></defs><g
     transform="matrix(1.3333333,0,0,-1.3333333,0,1056)"
     id="g10"><g
       id="g12"><g
         clip-path="url(#clipPath18)"
         id="g14"><g
           transform="translate(468.8059,451.2563)"
           id="g20"><path
             id="path22"
             style="fill:#8a959a;fill-opacity:1;fill-rule:nonzero;stroke:none"
             d="m 0,0 c -2.454,-0.944 -7.362,-2.328 -13.087,-2.328 -6.419,0 -11.703,1.636 -15.857,5.6 -3.649,3.524 -5.914,9.186 -5.914,15.793 0,12.647 8.746,21.896 22.966,21.896 4.908,0 8.809,-1.069 10.633,-1.95 l -1.384,-4.468 c -2.265,1.07 -5.096,1.825 -9.374,1.825 -10.319,0 -17.052,-6.418 -17.052,-17.051 0,-10.76 6.417,-17.115 16.36,-17.115 3.585,0 6.039,0.504 7.298,1.133 v 12.647 h -8.557 v 4.405 H 0 Z" /></g><g
           transform="translate(477.0476,491.7772)"
           id="g24"><path
             id="path26"
             style="fill:#8a959a;fill-opacity:1;fill-rule:nonzero;stroke:none"
             d="m 0,0 h 5.537 v -37.815 h 18.121 v -4.593 H 0 Z" /></g><g
           transform="translate(507.6264,470.3842)"
           id="g28"><path
             id="path30"
             style="fill:#8a959a;fill-opacity:1;fill-rule:nonzero;stroke:none"
             d="m 0,0 c 0,-9.124 4.908,-17.24 13.59,-17.24 8.684,0 13.592,7.991 13.592,17.618 0,8.494 -4.405,17.303 -13.528,17.303 C 4.53,17.681 0,9.249 0,0 m 32.97,0.629 c 0,-14.534 -8.872,-22.336 -19.694,-22.336 -11.263,0 -19.065,8.745 -19.065,21.581 0,13.465 8.306,22.274 19.631,22.274 11.64,0 19.128,-8.872 19.128,-21.519" /></g><g
           transform="translate(553.1798,453.5218)"
           id="g32"><path
             id="path34"
             style="fill:#8a959a;fill-opacity:1;fill-rule:nonzero;stroke:none"
             d="m 0,0 c 1.133,-0.189 2.643,-0.252 4.593,-0.252 5.663,0 10.886,2.077 10.886,8.243 0,5.725 -4.971,8.179 -10.948,8.179 H 0 Z m 0,20.26 h 4.971 c 5.725,0 9.124,3.083 9.124,7.173 0,4.908 -3.713,6.921 -9.25,6.921 -2.517,0 -3.964,-0.189 -4.845,-0.378 z m -5.473,17.366 c 2.39,0.566 6.228,0.944 10.004,0.944 5.473,0 8.997,-0.944 11.577,-3.083 2.202,-1.636 3.586,-4.153 3.586,-7.488 0,-4.153 -2.768,-7.739 -7.172,-9.312 v -0.189 c 4.026,-0.944 8.745,-4.278 8.745,-10.57 0,-3.649 -1.447,-6.481 -3.649,-8.495 -2.895,-2.705 -7.676,-3.964 -14.598,-3.964 -3.774,0 -6.669,0.252 -8.493,0.504 z" /></g><g
           transform="translate(602.6345,466.9866)"
           id="g36"><path
             id="path38"
             style="fill:#8a959a;fill-opacity:1;fill-rule:nonzero;stroke:none"
             d="m 0,0 -4.216,12.206 c -0.944,2.769 -1.573,5.286 -2.202,7.74 H -6.544 C -7.173,17.492 -7.803,14.849 -8.684,12.27 L -12.836,0 Z m -13.968,-4.279 -4.405,-13.339 h -5.663 L -9.564,24.791 H -3.02 L 11.451,-17.618 H 5.6 L 1.07,-4.279 Z" /></g><g
           transform="translate(620.2517,491.7772)"
           id="g40"><path
             id="path42"
             style="fill:#8a959a;fill-opacity:1;fill-rule:nonzero;stroke:none"
             d="m 0,0 h 5.537 v -37.815 h 18.121 v -4.593 H 0 Z" /></g><g
           transform="translate(435.7732,393.1945)"
           id="g44"><path
             id="path46"
             style="fill:#8a959a;fill-opacity:1;fill-rule:nonzero;stroke:none"
             d="m 0,0 c 2.454,-1.573 5.977,-2.769 9.752,-2.769 5.6,0 8.872,2.958 8.872,7.236 0,3.901 -2.265,6.23 -7.991,8.369 -6.921,2.516 -11.199,6.166 -11.199,12.08 0,6.607 5.474,11.515 13.716,11.515 4.278,0 7.488,-1.007 9.312,-2.077 l -1.51,-4.467 C 19.631,30.705 16.8,31.9 12.962,31.9 7.173,31.9 4.97,28.44 4.97,25.545 c 0,-3.964 2.581,-5.914 8.432,-8.179 7.172,-2.769 10.759,-6.229 10.759,-12.458 0,-6.544 -4.782,-12.27 -14.786,-12.27 -4.09,0 -8.557,1.259 -10.822,2.769 z" /></g><g
           transform="translate(472.9575,428.9332)"
           id="g48"><path
             id="path50"
             style="fill:#8a959a;fill-opacity:1;fill-rule:nonzero;stroke:none"
             d="M 0,0 V -17.744 H 20.512 V 0 h 5.538 v -42.408 h -5.538 v 19.882 H 0 V -42.408 H -5.537 V 0 Z" /></g><g
           transform="translate(529.3339,404.1426)"
           id="g52"><path
             id="path54"
             style="fill:#8a959a;fill-opacity:1;fill-rule:nonzero;stroke:none"
             d="m 0,0 -4.216,12.206 c -0.944,2.769 -1.573,5.286 -2.202,7.74 H -6.544 C -7.173,17.492 -7.803,14.849 -8.684,12.27 L -12.836,0 Z m -13.968,-4.279 -4.405,-13.339 h -5.663 L -9.564,24.791 H -3.02 L 11.451,-17.618 H 5.6 L 1.07,-4.279 Z" /></g><g
           transform="translate(552.4877,407.9807)"
           id="g56"><path
             id="path58"
             style="fill:#8a959a;fill-opacity:1;fill-rule:nonzero;stroke:none"
             d="m 0,0 c 1.196,-0.315 2.706,-0.44 4.531,-0.44 6.606,0 10.633,3.272 10.633,8.997 0,5.663 -4.027,8.369 -10.004,8.369 -2.391,0 -4.216,-0.189 -5.16,-0.441 z m -5.473,20.449 c 2.642,0.44 6.103,0.818 10.507,0.818 5.411,0 9.375,-1.259 11.892,-3.524 2.265,-2.013 3.713,-5.096 3.713,-8.871 0,-3.839 -1.133,-6.859 -3.273,-9.061 C 14.409,-3.272 9.753,-4.845 4.405,-4.845 2.769,-4.845 1.259,-4.782 0,-4.467 v -16.989 h -5.473 z" /></g><g
           transform="translate(602.3833,406.4077)"
           id="g60"><path
             id="path62"
             style="fill:#8a959a;fill-opacity:1;fill-rule:nonzero;stroke:none"
             d="M 0,0 H -16.423 V -15.289 H 1.95 v -4.594 H -21.959 V 22.526 H 1.006 V 17.932 H -16.423 V 4.53 L 0,4.53 Z" /></g><g
           transform="translate(616.916,409.0504)"
           id="g64"><path
             id="path66"
             style="fill:#8a959a;fill-opacity:1;fill-rule:nonzero;stroke:none"
             d="m 0,0 h 5.6 c 5.852,0 9.564,3.209 9.564,8.054 0,5.474 -3.964,7.865 -9.752,7.865 C 2.769,15.919 0.944,15.73 0,15.478 Z m -5.473,19.316 c 2.768,0.504 6.795,0.881 10.507,0.881 5.851,0 9.689,-1.132 12.27,-3.46 2.076,-1.888 3.335,-4.782 3.335,-8.117 0,-5.537 -3.524,-9.249 -7.929,-10.759 v -0.189 c 3.209,-1.133 5.159,-4.153 6.167,-8.557 1.384,-5.915 2.39,-10.005 3.271,-11.641 h -5.663 c -0.692,1.259 -1.635,4.845 -2.768,10.13 -1.259,5.852 -3.586,8.054 -8.557,8.243 H 0 v -18.373 h -5.473 z" /></g><g
           transform="translate(644.6009,393.1945)"
           id="g68"><path
             id="path70"
             style="fill:#8a959a;fill-opacity:1;fill-rule:nonzero;stroke:none"
             d="m 0,0 c 2.454,-1.573 5.977,-2.769 9.752,-2.769 5.6,0 8.872,2.958 8.872,7.236 0,3.901 -2.265,6.23 -7.991,8.369 -6.921,2.516 -11.199,6.166 -11.199,12.08 0,6.607 5.474,11.515 13.716,11.515 4.278,0 7.488,-1.007 9.312,-2.077 l -1.51,-4.467 C 19.631,30.705 16.8,31.9 12.962,31.9 7.173,31.9 4.97,28.44 4.97,25.545 c 0,-3.964 2.581,-5.914 8.432,-8.179 7.172,-2.769 10.759,-6.229 10.759,-12.458 0,-6.544 -4.782,-12.27 -14.786,-12.27 -4.09,0 -8.557,1.259 -10.822,2.769 z" /></g><g
           transform="translate(466.0377,325.0019)"
           id="g72"><path
             id="path74"
             style="fill:#8a959a;fill-opacity:1;fill-rule:nonzero;stroke:none"
             d="m 0,0 c -1.951,-1.006 -6.041,-2.013 -11.2,-2.013 -11.955,0 -20.89,7.551 -20.89,21.519 0,13.339 8.998,22.274 22.149,22.274 5.222,0 8.619,-1.133 10.067,-1.888 l -1.385,-4.468 c -2.013,1.007 -4.971,1.762 -8.494,1.762 -9.941,0 -16.548,-6.355 -16.548,-17.492 0,-10.444 5.978,-17.051 16.233,-17.051 3.398,0 6.796,0.692 8.998,1.762 z" /></g><g
           transform="translate(474.9081,344.6963)"
           id="g76"><path
             id="path78"
             style="fill:#8a959a;fill-opacity:1;fill-rule:nonzero;stroke:none"
             d="m 0,0 c 0,-9.124 4.908,-17.241 13.59,-17.241 8.684,0 13.592,7.992 13.592,17.619 0,8.493 -4.405,17.303 -13.528,17.303 C 4.53,17.681 0,9.249 0,0 m 32.97,0.629 c 0,-14.535 -8.872,-22.336 -19.694,-22.336 -11.262,0 -19.065,8.745 -19.065,21.581 0,13.465 8.306,22.273 19.631,22.273 11.64,0 19.128,-8.871 19.128,-21.518" /></g><g
           transform="translate(550.7269,342.3057)"
           id="g80"><path
             id="path82"
             style="fill:#8a959a;fill-opacity:1;fill-rule:nonzero;stroke:none"
             d="M 0,0 C -0.315,5.914 -0.692,13.087 -0.692,18.309 H -0.819 C -2.328,13.402 -4.027,8.054 -6.166,2.202 l -7.488,-20.575 h -4.153 l -6.921,20.197 c -2.014,6.041 -3.649,11.452 -4.845,16.485 h -0.126 c -0.125,-5.285 -0.44,-12.332 -0.818,-18.75 l -1.133,-18.184 h -5.222 l 2.957,42.409 h 6.984 l 7.237,-20.512 c 1.761,-5.223 3.146,-9.879 4.279,-14.283 h 0.125 c 1.132,4.278 2.643,8.934 4.53,14.283 l 7.551,20.512 H 3.775 L 6.417,-18.625 H 1.006 Z" /></g><g
           transform="translate(601.3126,342.3057)"
           id="g84"><path
             id="path86"
             style="fill:#8a959a;fill-opacity:1;fill-rule:nonzero;stroke:none"
             d="M 0,0 C -0.315,5.914 -0.692,13.087 -0.692,18.309 H -0.819 C -2.328,13.402 -4.027,8.054 -6.166,2.202 l -7.488,-20.575 h -4.153 l -6.921,20.197 c -2.014,6.041 -3.649,11.452 -4.845,16.485 h -0.126 c -0.125,-5.285 -0.44,-12.332 -0.817,-18.75 l -1.134,-18.184 h -5.222 l 2.957,42.409 h 6.984 l 7.237,-20.512 c 1.761,-5.223 3.146,-9.879 4.279,-14.283 h 0.125 c 1.132,4.278 2.643,8.934 4.53,14.283 l 7.551,20.512 H 3.775 L 6.418,-18.625 H 1.006 Z" /></g><g
           transform="translate(621.634,366.0893)"
           id="g88"><path
             id="path90"
             style="fill:#8a959a;fill-opacity:1;fill-rule:nonzero;stroke:none"
             d="m 0,0 v -25.168 c 0,-9.439 4.216,-13.466 9.879,-13.466 6.229,0 10.319,4.154 10.319,13.466 V 0 h 5.536 v -24.791 c 0,-13.024 -6.857,-18.309 -16.044,-18.309 -8.683,0 -15.227,4.907 -15.227,18.12 l 0,24.98 z" /></g><g
           transform="translate(656.8685,323.681)"
           id="g92"><path
             id="path94"
             style="fill:#8a959a;fill-opacity:1;fill-rule:nonzero;stroke:none"
             d="M 0,0 V 42.408 H 6.04 L 19.568,20.952 c 3.083,-4.97 5.6,-9.438 7.55,-13.779 l 0.189,0.063 c -0.503,5.662 -0.63,10.822 -0.63,17.429 v 17.743 h 5.16 L 31.837,0 H 26.3 L 12.835,21.519 C 9.878,26.238 7.046,31.082 4.97,35.675 L 4.781,35.613 C 5.097,30.264 5.159,25.168 5.159,18.121 V 0 Z" /></g><path
           id="path96"
           style="fill:#8a959a;fill-opacity:1;fill-rule:nonzero;stroke:none"
           d="m 703.742,323.681 h -5.537 v 42.408 h 5.537 z" /><g
           transform="translate(721.36,361.4326)"
           id="g98"><path
             id="path100"
             style="fill:#8a959a;fill-opacity:1;fill-rule:nonzero;stroke:none"
             d="M 0,0 H -12.899 V 4.657 H 18.498 V 0 H 5.537 V -37.752 H 0 Z" /></g><g
           transform="translate(755.7769,323.681)"
           id="g102"><path
             id="path104"
             style="fill:#8a959a;fill-opacity:1;fill-rule:nonzero;stroke:none"
             d="m 0,0 v 17.995 l -13.465,24.413 h 6.292 L -1.195,30.705 C 0.378,27.496 1.699,24.917 3.02,21.96 h 0.126 c 1.132,2.768 2.643,5.536 4.278,8.745 l 6.104,11.703 h 6.165 L 5.537,18.058 V 0 Z" /></g><g
           transform="translate(441.9387,264.9895)"
           id="g106"><path
             id="path108"
             style="fill:#005ea4;fill-opacity:1;fill-rule:nonzero;stroke:none"
             d="m 0,0 c 1.133,-0.189 2.643,-0.251 4.593,-0.251 5.664,0 10.886,2.076 10.886,8.242 0,5.726 -4.971,8.18 -10.948,8.18 H 0 Z m 0,20.261 h 4.971 c 5.726,0 9.124,3.083 9.124,7.173 0,4.908 -3.713,6.921 -9.25,6.921 -2.517,0 -3.964,-0.189 -4.845,-0.378 z m -5.473,17.365 c 2.39,0.567 6.228,0.944 10.004,0.944 5.473,0 8.997,-0.944 11.577,-3.082 2.202,-1.637 3.586,-4.154 3.586,-7.489 0,-4.152 -2.768,-7.738 -7.172,-9.311 V 18.499 C 16.548,17.555 21.267,14.22 21.267,7.928 21.267,4.279 19.82,1.447 17.618,-0.566 14.723,-3.272 9.942,-4.53 3.02,-4.53 c -3.774,0 -6.669,0.252 -8.493,0.503 z" /></g><g
           transform="translate(473.8384,281.8524)"
           id="g110"><path
             id="path112"
             style="fill:#005ea4;fill-opacity:1;fill-rule:nonzero;stroke:none"
             d="m 0,0 c 0,-9.124 4.908,-17.241 13.59,-17.241 8.684,0 13.592,7.992 13.592,17.619 0,8.493 -4.405,17.303 -13.528,17.303 C 4.53,17.681 0,9.249 0,0 m 32.97,0.629 c 0,-14.535 -8.872,-22.336 -19.694,-22.336 -11.263,0 -19.065,8.745 -19.065,21.581 0,13.465 8.306,22.273 19.631,22.273 11.64,0 19.128,-8.871 19.128,-21.518" /></g><g
           transform="translate(519.3917,303.2454)"
           id="g114"><path
             id="path116"
             style="fill:#005ea4;fill-opacity:1;fill-rule:nonzero;stroke:none"
             d="m 0,0 v -25.168 c 0,-9.439 4.216,-13.466 9.879,-13.466 6.229,0 10.319,4.154 10.319,13.466 V 0 h 5.536 v -24.791 c 0,-13.024 -6.857,-18.309 -16.044,-18.309 -8.683,0 -15.227,4.907 -15.227,18.12 l 0,24.98 z" /></g><g
           transform="translate(554.563,303.2454)"
           id="g118"><path
             id="path120"
             style="fill:#005ea4;fill-opacity:1;fill-rule:nonzero;stroke:none"
             d="m 0,0 h 5.537 v -37.815 h 18.121 v -4.593 H 0 Z" /></g><g
           transform="translate(589.7966,265.116)"
           id="g122"><path
             id="path124"
             style="fill:#005ea4;fill-opacity:1;fill-rule:nonzero;stroke:none"
             d="m 0,0 c 1.385,-0.189 3.398,-0.252 5.538,-0.252 11.766,0 18.058,6.544 18.058,17.995 0.062,10.004 -5.6,16.359 -17.178,16.359 C 3.587,34.102 1.447,33.85 0,33.536 Z m -5.473,37.5 c 3.334,0.566 7.298,0.944 11.639,0.944 7.865,0 13.465,-1.888 17.178,-5.286 3.838,-3.46 6.04,-8.368 6.04,-15.226 0,-6.921 -2.202,-12.584 -6.104,-16.486 -4.026,-3.963 -10.57,-6.103 -18.812,-6.103 -3.964,0 -7.173,0.189 -9.941,0.504 z" /></g><g
           transform="translate(648.1227,280.7194)"
           id="g126"><path
             id="path128"
             style="fill:#005ea4;fill-opacity:1;fill-rule:nonzero;stroke:none"
             d="M 0,0 H -16.423 V -15.289 H 1.95 v -4.593 H -21.96 V 22.526 H 1.006 V 17.933 H -16.423 V 4.531 L 0,4.531 Z" /></g><g
           transform="translate(662.6562,283.3621)"
           id="g130"><path
             id="path132"
             style="fill:#005ea4;fill-opacity:1;fill-rule:nonzero;stroke:none"
             d="m 0,0 h 5.6 c 5.852,0 9.564,3.209 9.564,8.054 0,5.474 -3.964,7.865 -9.752,7.865 -2.643,0 -4.468,-0.188 -5.412,-0.44 z m -5.473,19.317 c 2.768,0.503 6.795,0.881 10.507,0.881 5.851,0 9.689,-1.133 12.27,-3.461 2.076,-1.887 3.335,-4.782 3.335,-8.117 0,-5.536 -3.524,-9.249 -7.929,-10.759 v -0.188 c 3.21,-1.133 5.159,-4.154 6.167,-8.557 1.384,-5.916 2.39,-10.005 3.271,-11.641 h -5.663 c -0.692,1.259 -1.635,4.844 -2.768,10.13 -1.259,5.852 -3.586,8.054 -8.557,8.243 H 0 v -18.373 h -5.473 z" /></g><g
           transform="translate(42.6595,364.6731)"
           id="g134"><path
             id="path136"
             style="fill:#005ea4;fill-opacity:1;fill-rule:nonzero;stroke:none"
             d="m 0,0 c 1.179,0.121 1.937,0.254 2.696,0.268 25.858,0.499 51.717,0.972 77.574,1.488 5.053,0.101 10.106,0.307 15.153,0.576 2.136,0.114 2.889,-0.613 3.08,-2.825 0.52,-6.035 1.411,-12.037 2.037,-18.064 0.191,-1.842 1.104,-2.231 2.698,-2.05 12.827,1.46 25.657,2.892 38.483,4.356 5.54,0.632 11.075,1.316 16.612,1.977 -1.233,-8.221 -2.405,-16.036 -3.68,-24.54 5.315,1.214 9.743,2.225 14.5,3.312 0.919,-2.354 2.024,-4.677 2.652,-7.123 0.175,-0.681 -0.859,-2.154 -1.677,-2.534 -6.521,-3.023 -13.123,-5.871 -19.701,-8.771 -41.428,-18.266 -82.263,-37.775 -122.528,-58.478 -0.293,-0.151 -0.594,-0.287 -1.395,-0.672 C 11.17,-76.885 2.301,-39.343 0,0" /></g><g
           transform="translate(345.6936,722.0623)"
           id="g138"><path
             id="path140"
             style="fill:#005ea4;fill-opacity:1;fill-rule:nonzero;stroke:none"
             d="m 0,0 c 1.918,-17.88 3.817,-35.583 5.732,-53.44 -10.882,-1.845 -21.34,-3.617 -32.064,-5.434 0.188,-4.279 0.354,-8.067 0.527,-12.026 -8.451,-2.428 -16.81,-4.829 -25.658,-7.37 -3.118,9.052 -6.234,18.098 -9.51,27.61 -5.335,-1.97 -10.44,-3.854 -16.013,-5.912 7.755,-19.289 15.393,-38.287 23.123,-57.514 -4.298,-1.935 -8.461,-3.808 -12.956,-5.832 1.082,-3.833 2.131,-7.555 3.177,-11.261 -8.032,-4.485 -15.935,-8.897 -24.095,-13.453 -19.82,30.898 -39.638,61.792 -59.422,92.634 C -125.87,-31.654 -34.294,0.738 0,0" /></g><g
           transform="translate(484.1307,127.9028)"
           id="g142"><path
             id="path144"
             style="fill:#005ea4;fill-opacity:1;fill-rule:nonzero;stroke:none"
             d="M 0,0 C 7.84,-19.647 15.653,-39.228 23.457,-58.784 4.392,-70.447 -75.515,-86.475 -97.626,-82.992 c -0.47,32.617 -0.94,65.3 -1.421,98.691 2.738,0 5.272,0.003 7.805,-10e-4 2.276,-0.003 3.147,0.975 2.888,3.361 -0.398,3.655 -0.473,7.344 -0.699,11.278 7.502,0.841 14.608,1.638 22.026,2.469 0.796,-4.553 1.58,-9.042 2.458,-14.069 3.348,0.493 6.613,0.973 10.375,1.526 0.927,-4.297 2.064,-8.59 2.715,-12.955 0.396,-2.649 1.613,-3.283 4.028,-3.26 5.96,0.058 11.922,-0.131 17.884,-0.123 1.945,0.003 3.101,-0.522 3.581,-2.626 0.594,-2.603 1.577,-5.117 2.559,-8.191 C -15.675,-4.611 -8.091,-2.38 0,0" /></g><g
           transform="translate(448.9193,622.6557)"
           id="g146"><path
             id="path148"
             style="fill:#005ea4;fill-opacity:1;fill-rule:nonzero;stroke:none"
             d="m 0,0 c 1.055,3.875 2.256,8.285 3.602,13.226 -7.243,1.759 -14.268,3.465 -21.822,5.3 4.879,25.666 9.747,51.27 14.665,77.141 C 42.08,86.812 83.817,69.686 122.469,43.945 112.368,28.877 102.381,13.982 92.326,-1.017 83.366,4.265 74.609,9.427 65.42,14.844 59.28,3.133 53.364,-8.153 47.689,-18.978 31.729,-12.627 15.953,-6.349 0,0" /></g><g
           transform="translate(485.8361,228.5302)"
           id="g150"><path
             id="path152"
             style="fill:#005ea4;fill-opacity:1;fill-rule:nonzero;stroke:none"
             d="m 0,0 c 3.601,2.51 6.818,4.753 10.313,7.188 30.903,-40.247 61.747,-80.418 92.577,-120.569 -8.296,-8.818 -52.03,-35.077 -67.213,-40.297 -20.736,46.116 -41.49,92.271 -62.37,138.706 2.399,1.283 4.712,2.519 7.193,3.845 -1.553,3.094 -2.992,5.961 -4.485,8.936 6.159,3.584 12.057,7.016 18.255,10.623 C -3.926,5.777 -2.064,3.038 0,0" /></g><g
           transform="translate(126.3063,438.9666)"
           id="g154"><path
             id="path156"
             style="fill:#005ea4;fill-opacity:1;fill-rule:nonzero;stroke:none"
             d="M 0,0 C 4.317,-1.01 7.783,-1.821 11.408,-2.669 10.453,-8.767 9.39,-14.698 8.626,-20.668 7.828,-26.897 7.193,-33.155 6.743,-39.419 c -0.171,-2.368 -0.739,-3.586 -3.335,-3.304 -1.894,0.206 -3.842,-0.022 -5.721,0.253 -2.485,0.365 -3.197,-0.678 -3.148,-2.97 0.091,-4.27 0.026,-8.543 0.026,-13.346 -26.193,-0.447 -52.203,-0.89 -78.71,-1.342 -0.722,39.605 5.475,77.979 18.262,115.745 C -41.006,47.067 -16.372,38.599 8.302,30.118 5.506,19.973 2.809,10.189 0,0" /></g><g
           transform="translate(310.4627,122.0256)"
           id="g158"><path
             id="path160"
             style="fill:#005ea4;fill-opacity:1;fill-rule:nonzero;stroke:none"
             d="m 0,0 c 4.783,-1.155 9.25,-2.174 13.682,-3.328 2.255,-0.587 3.291,-0.307 3.829,2.405 3.146,15.845 6.623,31.625 9.789,47.467 0.497,2.487 1.496,2.877 3.62,2.441 2.95,-0.605 5.927,-1.082 9.385,-1.701 0.679,4.788 1.352,9.285 1.947,13.793 0.985,7.458 1.937,14.92 2.864,22.386 0.268,2.155 1.132,3.075 3.525,2.734 4.997,-0.711 10.037,-1.126 15.493,-1.709 C 63.364,30.95 62.591,-22.842 61.816,-76.727 53.768,-79.302 -7.42,-70.415 -17.793,-64.952 -11.892,-43.412 -5.978,-21.822 0,0" /></g><g
           transform="translate(93.7089,564.4669)"
           id="g162"><path
             id="path164"
             style="fill:#005ea4;fill-opacity:1;fill-rule:nonzero;stroke:none"
             d="m 0,0 c 45.103,-28.156 89.97,-56.165 134.688,-84.081 -4.5,-9.674 -8.881,-19.094 -13.286,-28.565 C 71.583,-94.039 21.707,-75.412 -28.42,-56.69 -20.771,-36.974 -11.35,-18.181 0,0" /></g><g
           transform="translate(171.6793,117.4091)"
           id="g166"><path
             id="path168"
             style="fill:#005ea4;fill-opacity:1;fill-rule:nonzero;stroke:none"
             d="M 0,0 C 20.53,26.094 40.751,51.794 60.957,77.477 69.646,71.537 78.073,65.775 86.855,59.771 76.486,42.294 66.028,24.667 55.346,6.664 59.689,4.229 63.867,1.888 68.464,-0.689 71.27,4.506 73.963,9.491 76.462,14.117 92.212,7.507 107.809,0.963 123.858,-5.772 118.615,-22.336 113.189,-39.476 107.665,-56.929 68.223,-44.359 32.528,-25.484 0,0" /></g><g
           transform="translate(74.7237,239.0261)"
           id="g170"><path
             id="path172"
             style="fill:#005ea4;fill-opacity:1;fill-rule:nonzero;stroke:none"
             d="m 0,0 c 11.697,5.51 22.932,10.802 34.335,16.174 2.112,-4.259 4.094,-8.256 6.173,-12.45 9.091,4.815 17.622,2.01 25.652,-1.883 7.134,-3.458 13.776,-7.957 20.502,-12.208 1.756,-1.11 3.125,-1.751 5.223,-0.997 3.773,1.355 7.662,2.387 12.223,3.773 -2.471,-3.607 -4.445,-6.778 -6.721,-9.715 -1.666,-2.151 -2.041,-4.057 -1.136,-6.753 3.118,-9.295 4.989,-18.875 5.183,-28.71 0.137,-6.927 -0.316,-8.295 -4.134,-15.961 4.562,-4.782 9.127,-9.56 13.956,-14.615 -8.093,-9.497 -16.448,-19.302 -25.068,-29.419 C 49.405,-81.241 20.999,-43.827 0,0" /></g><g
           transform="translate(231.1193,599.4523)"
           id="g174"><path
             id="path176"
             style="fill:#005ea4;fill-opacity:1;fill-rule:nonzero;stroke:none"
             d="m 0,0 c -8.045,-8.576 -15.574,-16.602 -23.391,-24.935 -3.125,3.415 -6.214,6.62 -9.091,10.004 -1.577,1.855 -2.772,1.994 -4.708,0.416 -12.009,-9.788 -24.108,-19.465 -36.718,-29.614 -2.76,2.074 -6.424,4.626 -9.844,7.472 -2.081,1.733 -3.62,2.057 -5.722,0.017 -2.885,-2.799 -6.062,-5.296 -9.249,-8.04 -10.446,7.107 -20.728,14.102 -30.988,21.081 14.493,25.376 65.004,76.468 85.638,86.62 C -29.173,41.715 -14.249,20.375 0,0" /></g><g
           transform="translate(431.683,720.4734)"
           id="g178"><path
             id="path180"
             style="fill:#005ea4;fill-opacity:1;fill-rule:nonzero;stroke:none"
             d="m 0,0 c -0.847,-5.912 -1.642,-11.661 -2.499,-17.402 -2.6,-17.413 -5.225,-34.822 -7.836,-52.233 -0.699,-4.657 -1.268,-9.339 -2.17,-13.957 -0.183,-0.934 -1.514,-2.195 -2.462,-2.339 -5.323,-0.807 -10.686,-1.372 -16.047,-1.907 -2.534,-0.253 -3.908,-1.193 -4.417,-3.974 -1.814,-9.921 -3.908,-19.791 -5.945,-29.67 -0.158,-0.769 -0.547,-1.946 -1.084,-2.112 -6.825,-2.116 -13.697,-4.081 -20.865,-6.175 -2.962,44.245 -5.908,88.255 -8.852,132.226 C -63.967,5.059 -20.194,3.593 0,0" /></g><g
           transform="translate(599.4316,532.3663)"
           id="g182"><path
             id="path184"
             style="fill:#005ea4;fill-opacity:1;fill-rule:nonzero;stroke:none"
             d="m 0,0 c -4.954,6.456 -9.767,12.645 -14.433,18.943 -0.443,0.599 -0.31,2.111 0.152,2.801 1.299,1.943 2.908,3.678 4.586,5.728 -2.665,3.081 -5.201,6.014 -7.893,9.127 7.514,6.955 14.905,13.797 22.647,20.963 -13.191,14.66 -27.892,27.201 -43.559,39.006 7.319,10.028 14.392,19.718 21.725,29.766 C 18.495,100.447 47.612,69.12 70.986,31.812 51.73,19.843 32.69,8.008 13.365,-4.004 11.353,-1.028 9.44,1.802 7.408,4.807 4.824,3.131 2.49,1.616 0,0" /></g><g
           transform="translate(599.7086,123.4365)"
           id="g186"><path
             id="path188"
             style="fill:#005ea4;fill-opacity:1;fill-rule:nonzero;stroke:none"
             d="m 0,0 c -14.582,17.507 -28.886,34.681 -42.227,50.698 11.43,11.386 22.6,22.513 34.156,34.026 2.692,-2.237 6.985,-5.485 10.88,-9.155 2.569,-2.419 4.278,-2.27 6.551,0.259 2.31,2.571 5.013,4.789 7.778,7.381 C 29.211,74.095 41.188,65.054 53.243,55.955 37.584,35.145 19.918,16.733 0,0" /></g></g></g></g></svg>